<?xml version="1.0" encoding="utf-8"?>
<!-- Generator: Adobe Illustrator 16.0.3, SVG Export Plug-In . SVG Version: 6.00 Build 0)  -->
<!DOCTYPE svg PUBLIC "-//W3C//DTD SVG 1.1//EN" "http://www.w3.org/Graphics/SVG/1.1/DTD/svg11.dtd">
<svg version="1.1" id="Layer_1" xmlns="http://www.w3.org/2000/svg" xmlns:xlink="http://www.w3.org/1999/xlink" x="0px" y="0px"
	 width="89.425px" height="98.47px" viewBox="0 0 89.425 98.47" enable-background="new 0 0 89.425 98.47" xml:space="preserve">
<g>
	<path fill="#FFFFFF" d="M88.887,67.758c-1.095-0.439-2.22-0.504-3.353-0.335c-0.741-2.854-1.475-5.114-3.083-7.505
		c-0.118-0.176-0.421-0.455-0.509-0.606c-0.367-0.841-0.732-1.683-1.099-2.522c0.003-0.623-0.034-1.242-0.108-1.859
		c-0.085-0.16-0.162-0.293-0.24-0.408c0.041-0.043,0.083-0.085,0.125-0.128c0.354-0.36,0.093-0.94-0.344-1.065
		c0.598-0.336,1.191-0.678,1.791-1.012c0.344-0.191,0.664-0.66,0.422-1.065c-7.256-12.132-14.422-24.319-21.648-36.469
		c-3.133-5.269-5.477-14.424-11.99-14.771c-6.325-0.337-16.258,7.514-21.707,10.993c-9.395,6-18.257,12.873-27.047,19.716
		c-0.188,0.147-0.077,0.359,0.097,0.423c4.319,19.289,12.029,39.214,21.662,56.461c0.004,0.008,0.012,0.006,0.017,0.013
		c3.563,9.45,7.429,13.558,17.041,8.973c17.159-8.186,33.833-17.392,50.11-27.203C89.624,69.025,89.53,68.017,88.887,67.758z
		 M82.251,62.367c-8.949,4.33-17.386,9.734-26.253,14.252c-8.185,4.17-16.771,7.594-24.326,12.879
		c-0.245,0.172,0.018,0.594,0.28,0.445c16.651-9.408,34.555-16.521,50.602-27.038c0.756,1.485,1.145,3.081,1.676,4.802
		c-3.469,1.044-6.908,3.983-9.601,5.512C63.726,79.403,51.599,87.6,39.566,91.187c-1.162,0.538-2.324,1.075-3.486,1.613
		c-0.979-0.419-1.958-0.839-2.938-1.259c16.338-6.85,33.42-14.733,48.311-24.339c0.177-0.114,0.026-0.419-0.171-0.331
		c-16.547,7.27-32.821,16.108-48.943,24.306l-0.001,0.002c-0.135-0.232-0.27-0.464-0.41-0.701c-0.386-0.651-0.773-1.302-1.16-1.952
		c-0.014-0.023-0.039-0.059-0.057-0.086c17.07-8.483,32.928-19.545,49.766-28.538c0.335,0.476,0.702,0.949,1.013,1.337
		C81.784,61.606,82.027,61.984,82.251,62.367z M37.18,80.262c4.523-3.211,9.109-6.336,13.759-9.358
		c8.942-5.812,18.115-11.241,27.4-16.48c0.008,0.001,0.014,0.006,0.021,0.006c0.145,0.017,0.29,0.033,0.434,0.05
		c-0.079,0.351,0.167,0.758,0.535,0.818c0.079,0.014,0.185,0.931,0.31,1.881c-0.047-0.018-0.101-0.02-0.16,0.008
		c-17.503,7.938-34.076,18.672-49.882,29.529c-0.165-0.329-0.267-0.637-0.209-0.854c0.011-0.041,0.007-0.081,0.014-0.122
		C31.772,83.412,35.879,81.185,37.18,80.262z M29.929,87.298C46.125,76.629,63.014,67.469,79.662,57.57
		c0.014-0.008,0.014-0.021,0.023-0.03c0.102,0.739,0.211,1.433,0.326,1.655c0.076,0.145,0.201,0.302,0.301,0.454
		c-17.385,7.562-34.25,17.641-49.844,28.434C30.303,87.851,30.111,87.58,29.929,87.298z M29.734,88.609
		c-0.076,0.107-0.002,0.24,0.125,0.238c0.249,0.496,0.465,0.96,0.649,1.309c-0.817-1.062-1.662-1.953-2.081-3.312
		c0.012-0.016,0.021-0.033,0.034-0.049C28.929,87.165,29.359,87.883,29.734,88.609z M27.771,88.088
		c0.185,0.521,0.44,1.011,0.775,1.484c-0.272-0.117-0.544-0.233-0.816-0.35C27.625,88.857,27.656,88.477,27.771,88.088z
		 M22.74,86.562c-0.089-0.182-0.248-0.246-0.417-0.263C14.64,67.84,7.015,49.916,0.873,30.825l-0.002-0.001
		c12.705-8.765,24.946-18.68,38.863-25.474c2.863-1.398,8.816-4.792,12.022-3.016c1.598,0.886,4.854,8.273,5.78,9.846
		c3.918,6.657,7.857,13.301,11.789,19.949c2.441,4.127,12.054,15.562,8.848,20.371c-1.408,2.111-7.518,4.043-9.635,5.246
		c-3.182,1.809-6.336,3.667-9.461,5.569c-10.709,6.518-21.14,13.562-31.091,21.198c-0.045,0.016-0.09,0.022-0.136,0.047
		c-0.088,0.045-0.128,0.137-0.196,0.203c-0.589,0.453-1.194,0.887-1.78,1.344c-0.35,0.273-0.527,0.607-0.431,1.056
		c0.687,3.224,1.619,5.693,3.322,7.048C26.314,92.797,24.51,90.153,22.74,86.562z M79.822,72.67
		c-5.99,3.494-12.041,6.881-18.156,10.151c-7.373,3.942-15.408,9.438-23.409,11.769c-2.153,0.628-3.989,0.867-5.59,0.766
		c0.789-0.026,1.653-0.146,2.628-0.395C47.3,91.895,59.902,83.527,70.76,77.554c3.323-1.829,6.567-3.804,9.893-5.626
		C86.289,68.84,83.969,70.252,79.822,72.67z"/>
	<path fill="#FFFFFF" d="M24.811,82.004C17.628,65.103,10.794,48.088,3.727,31.146c-0.113-0.272-0.583-0.123-0.498,0.167
		c5.034,17.378,12.398,35.05,20.712,51.113C24.193,82.913,25.026,82.51,24.811,82.004z"/>
	<path fill="#FFFFFF" d="M17.392,30.575c2.586,4.155,4.868,8.457,6.851,12.932c0.13,0.293,0.399,0.322,0.627,0.224
		c0.101-0.01,0.203-0.04,0.298-0.119c6.538-5.417,13.611-9.835,21.378-13.261c0.004-0.002,0.004-0.007,0.008-0.009
		c0.253-0.124,0.429-0.416,0.256-0.736c-2.33-4.345-4.79-8.612-7.382-12.807c-0.145-0.234-0.379-0.29-0.589-0.24
		c-0.087-0.003-0.177,0.009-0.272,0.06c-7.334,3.878-14.351,8.23-21.076,13.089c-0.308,0.223-0.283,0.607-0.108,0.844
		C17.388,30.56,17.387,30.567,17.392,30.575z M45.574,29.617c-7.464,3.342-14.312,7.637-20.638,12.809
		c-1.881-4.179-4.021-8.208-6.432-12.107c6.469-4.641,13.205-8.818,20.236-12.556C41.13,21.65,43.407,25.601,45.574,29.617z"/>
</g>
</svg>
