<?xml version="1.0" encoding="utf-8"?>
<!-- Generator: Adobe Illustrator 16.0.3, SVG Export Plug-In . SVG Version: 6.00 Build 0)  -->
<!DOCTYPE svg PUBLIC "-//W3C//DTD SVG 1.1//EN" "http://www.w3.org/Graphics/SVG/1.1/DTD/svg11.dtd">
<svg version="1.1" id="Layer_1" xmlns="http://www.w3.org/2000/svg" xmlns:xlink="http://www.w3.org/1999/xlink" x="0px" y="0px"
	 width="93.822px" height="80.252px" viewBox="0 0 93.822 80.252" enable-background="new 0 0 93.822 80.252" xml:space="preserve">
<g>
	<g>
		<g>
			<g>
				<g>
					<path fill="#FFFFFF" d="M60.257,52.749c-4.283,4.736-12.824,3.094-18.622,2.322c-0.257-0.034-0.254,0.333-0.056,0.414
						c4.127,1.702,8.637,0.194,12.792,1.283c2.938,0.771,5.005-1.333,6.219-3.764C60.69,52.8,60.426,52.562,60.257,52.749
						L60.257,52.749z"/>
				</g>
			</g>
			<g>
				<g>
					<path fill="#FFFFFF" d="M42.12,54.922c-7.093-0.684-15.398,0.467-21.098,4.931c-3.05,2.389-2.985,8.897,0.738,10.465
						c0.307,0.13,0.533-0.33,0.313-0.538c-1.809-1.72-2.095-3.387-1.95-5.812c0.234-3.887,4.85-5.754,7.909-6.731
						c4.446-1.421,9.484-1.312,14.087-1.915C42.373,55.287,42.38,54.947,42.12,54.922L42.12,54.922z"/>
				</g>
			</g>
			<g>
				<g>
					<path fill="#FFFFFF" d="M21.618,69.938c1.358,3.049,3.641,6.294,7.021,7.307c4.709,1.41,10.691,2.979,15.625,1.993
						c6.562-1.312,11.785-1.666,18.484-0.729c1.996,0.278,3.691-0.707,3.709-2.723c0.003-0.359-0.546-0.547-0.71-0.192
						c-1.248,2.706-8.662,1.024-10.917,0.923c-3.206-0.146-6.017,0.34-9.077,1.223c-4.662,1.345-9.746,0.128-14.331-0.87
						c-4.574-0.996-6.646-3.852-9.446-7.207C21.797,69.445,21.521,69.72,21.618,69.938L21.618,69.938z"/>
				</g>
			</g>
			<g>
				<g>
					<path fill="#FFFFFF" d="M65.017,78.719c6.338,2.265,15.501,2.722,19.419-3.598c2.447-3.948,2.317-8.746,3.217-13.153
						c0.684-3.35-1.574-8.021-2.92-11.025c-0.174-0.389-0.731-0.099-0.653,0.275c0.523,2.521,1.451,4.938,2.208,7.396
						c0.74,2.408-0.449,8.883-0.904,11.603c-1.689,10.09-12.439,9.805-20.192,7.87C64.775,77.982,64.622,78.578,65.017,78.719
						L65.017,78.719z"/>
				</g>
			</g>
			<g>
				<g>
					<path fill="#FFFFFF" d="M84.903,52.29c-0.275-1.935-1.13-3.33-2.42-4.774c-2.003-2.24-2.91-2.078-4.367-5.564
						c-0.56-1.337-0.792-1.568-1.674-2.671c-1.664-2.081-1.453-3.494-3.444-5.467c-2.537-2.517-5.469-4.626-8.469-6.547
						c-4.969-3.181-11.123-5.827-16.997-6.601c-3.566-0.47-6.788-0.336-10.295,0.378c-3.452,0.704-6.414-1.065-9.825-0.25
						c-2.812,0.671-3.611,2.632-7.011,3.215c-3.383,0.579-6.432,1.629-9.188,3.722c-0.327,0.249-0.666,0.838-0.826,1.056
						c-1.547,2.106-2.523,2.694-4.545,4.107C5,33.483,2.274,35.434,2.28,36.79c0.023,4.69-0.262,8.504-2.087,12.897
						c-0.727,1.748,0.749,3.045,1.909,4.02c1.767,1.483,4.495,1.951,6.65,2.479c4.064,0.994,7.386,3.039,10.767,5.414
						c0.688,0.483,1.338-0.646,0.656-1.123c-4.024-2.816-7.679-4.686-12.455-5.812c-0.898-0.205-1.782-0.458-2.652-0.76
						c-5.523-1.747-2.93-5.749-2.115-8.541c0.667-2.284,0.604-4.731,0.41-7.068c-0.334-4.021,4.731-4.766,6.734-6.845
						c1.453-1.508,2.143-3.26,4.033-4.381c2.773-1.645,5.826-1.83,8.885-2.437c3.583-0.711,3.316-3.737,8.328-3.056
						c1.615,0.219,2.636,0.976,4.359,0.714c3.43-0.521,6.671-1.085,10.158-0.834c6.406,0.461,12.729,3.45,18.155,6.688
						c3.001,1.791,5.699,4.029,8.265,6.388c1.546,1.422,1.572,3.129,2.661,4.749c1.255,1.865,2.502,3.694,3.63,5.702
						c1.695,3.019,4.991,3.522,5.631,7.501C84.277,52.948,84.968,52.745,84.903,52.29L84.903,52.29z"/>
				</g>
			</g>
			<g>
				<g>
					<path fill="#FFFFFF" d="M28.522,56.211c0.097-1.837,0.244-3.611,0.727-5.394c0.413-1.525,1.252-2.955,1.242-4.561
						c-0.001-0.171-0.218-0.176-0.276-0.037c-1.301,3.091-2.528,6.643-1.98,10.03C28.262,56.421,28.514,56.367,28.522,56.211
						L28.522,56.211z"/>
				</g>
			</g>
			<g>
				<g>
					<path fill="#FFFFFF" d="M25.304,57.58c-1.276-1.021-2.188-2.349-3.549-3.286c-1.125-0.773-2.998-1.696-4.365-1.252
						c-0.2,0.064-0.236,0.325-0.057,0.438c0.586,0.373,1.222,0.444,1.885,0.638c0.892,0.26,1.711,0.718,2.485,1.22
						c1.192,0.775,1.954,2.316,3.418,2.556C25.283,57.92,25.467,57.711,25.304,57.58L25.304,57.58z"/>
				</g>
			</g>
			<g>
				<g>
					<path fill="#FFFFFF" d="M35.885,54.792c0.077,0.038,0.826-1.082,0.961-1.286c0.448-0.678,1.099-1.404,1.235-2.224
						c0.024-0.144-0.12-0.301-0.267-0.205c-0.433,0.282-0.702,0.709-0.978,1.138c-0.351,0.545-0.713,1.082-1.031,1.646
						c-0.118,0.21-0.636,1.126,0.047,1.051C35.91,54.906,35.949,54.823,35.885,54.792L35.885,54.792z"/>
				</g>
			</g>
			<g>
				<g>
					<path fill="#FFFFFF" d="M46.585,55.966c2.42,0.689,3.623-2.068,4.674-3.767c0.921-1.489,1.6-3.027,2.093-4.701
						c0.63-2.135,5.793-2.387,7.554-3.066c0.306-0.117,0.297-0.669-0.084-0.621c-1.442,0.181-2.816,0.562-4.227,0.915
						c-1.171,0.292-2.68,0.391-3.586,1.297c-0.82,0.82-1.096,3.035-1.515,3.967c-0.805,1.787-2.449,5.531-4.849,5.527
						C46.386,55.517,46.337,55.895,46.585,55.966L46.585,55.966z"/>
				</g>
			</g>
			<g>
				<g>
					<path fill="#FFFFFF" d="M62.288,40.844c0.8-0.22,1.457-0.495,2.306-0.555c0.371-0.026,1.059,0.177,1.409-0.077
						c0.283-0.206,0.345-0.265,0.54-0.558c0.514-0.772,0.143-0.797,1.396-1.317c1.762-0.732,1.533-3.628,0.312-4.754
						c-0.027,0.208-0.055,0.417-0.081,0.626c0.646-0.321,1.319-0.444,1.993-0.677c0.141-0.048,0.127-0.219,0-0.271
						c-0.854-0.355-1.588-0.14-2.396,0.26c-0.226,0.112-0.261,0.459-0.081,0.626c0.96,0.885,1.098,3.135-0.389,3.489
						c-0.527,0.125-0.753,0.257-1.039,0.725c-0.125,0.204-0.185,0.488-0.258,0.714c-0.217,0.673-1.395,0.526-1.903,0.578
						c-0.765,0.078-1.438,0.357-2.003,0.858C61.941,40.646,62.103,40.895,62.288,40.844L62.288,40.844z"/>
				</g>
			</g>
			<g>
				<g>
					<path fill="#FFFFFF" d="M68.3,36.729c0.459,0.197,0.971,0.212,1.452,0.339c0.453,0.119,0.85,0.413,1.328,0.343
						c0.156-0.023,0.183-0.211,0.133-0.327c-0.202-0.469-0.812-0.61-1.262-0.739c-0.534-0.153-1.133-0.245-1.651-0.01
						C68.152,36.401,68.147,36.663,68.3,36.729L68.3,36.729z"/>
				</g>
			</g>
			<g>
				<g>
					<path fill="#FFFFFF" d="M62.888,26.824c-1.597-0.262-2.718,0.212-3.745,1.488c-0.402,0.499-0.454,1.26-0.451,1.884
						c0.26,1.915-0.326,3.63-1.757,5.146c-0.965,0.673-1.62,0.647-2.472,1.534c-1.815,1.89-3.449,3.693-6.088,4.463
						c-0.891,0.26-1.771,0.673-2.483,1.277c-1.313,1.115-2.116,1.908-2.911,3.404c-1.205,2.271,2.117,2.684-0.733,5.526
						c-0.318,0.316,0.094,0.868,0.483,0.625c1.235-0.773,1.387-1.395,1.435-2.9c0.211-6.63,4.164-5.841,8.07-8.575
						c0.689-0.483,1.434-1.483,1.979-2.114c1.401-1.622,3.042-1.873,4.451-3.283c1.822-1.822-0.138-8.169,4.131-7.809
						C63.177,27.523,63.265,26.886,62.888,26.824L62.888,26.824z"/>
				</g>
			</g>
			<g>
				<g>
					<path fill="#FFFFFF" d="M24.894,73.367c2.683-6.351,7.624-7.858,14.048-8.332c3.488-0.257,7.791,1.597,10.949-0.097
						c3.295-1.768,6.2,2.305,8.854,0.75c1.765-1.034,4.876-1.425,5.47-3.655c0.055-0.207-0.231-0.408-0.382-0.222
						c-1.099,1.354-3.418,1.356-4.895,2.228c-2.343,1.381-4.67-0.396-6.995-0.762c-0.566-0.089-1.257,0.063-1.732,0.355
						c-2.243,1.38-5.048,0.55-7.535,0.395c-7.489-0.468-15.751,1.176-18.2,9.164C24.401,73.435,24.792,73.608,24.894,73.367
						L24.894,73.367z"/>
				</g>
			</g>
			<g>
				<g>
					<path fill="#FFFFFF" d="M65.8,57.336c-0.014-0.006-0.026-0.013-0.04-0.02c-0.053-0.025-0.112-0.014-0.145,0.038
						c-0.012,0.019-0.023,0.037-0.035,0.056c-0.062,0.099,0,0.224,0.104,0.257c0.967,0.302,1.52-2.101,1.604-2.666
						c0.177-1.178-0.054-3.215-1.257-3.805c-0.17-0.084-0.331,0.051-0.301,0.231c0.16,0.969,0.744,1.76,0.827,2.788
						c0.044,0.538-0.055,1.073-0.188,1.591c-0.082,0.3-0.197,0.589-0.344,0.864c-0.051,0.103-0.101,0.204-0.151,0.307
						c-0.219,0.164-0.235,0.304-0.051,0.418C65.832,57.375,65.819,57.346,65.8,57.336L65.8,57.336z"/>
				</g>
			</g>
			<g>
				<g>
					<path fill="#FFFFFF" d="M64.125,62.352c1.416-0.868,2.759-0.431,4.286-0.268c1.551,0.166,2.851-0.358,4.392-0.363
						c1.322-0.004,3.053,0.216,3.391-1.41c0.051-0.242-0.209-0.374-0.392-0.229c-1.219,0.975-2.294,0.718-3.715,0.766
						c-1.528,0.051-2.724,0.604-4.337,0.386c-1.507-0.203-2.704-0.229-3.881,0.787C63.687,62.18,63.923,62.476,64.125,62.352
						L64.125,62.352z"/>
				</g>
			</g>
			<g>
				<g>
					<path fill="#FFFFFF" d="M50.584,64.883c2.065-0.288,3.499,4.077,5.462,2.936c0.084-0.049,0.117-0.19,0.033-0.258
						c-0.475-0.381-1.045-0.571-1.522-0.968c-0.516-0.429-0.926-0.979-1.413-1.438c-0.739-0.697-1.705-1.069-2.679-0.701
						C50.192,64.557,50.302,64.922,50.584,64.883L50.584,64.883z"/>
				</g>
			</g>
			<g>
				<g>
					<path fill="#FFFFFF" d="M36.679,72.019c2.632-2.688,5.46-3.035,8.736-1.226c1.476,0.815,2.802,1.803,4.541,1.556
						c0.158-0.022,0.186-0.278,0.045-0.343c-3.821-1.751-10.922-6.192-13.736-0.307C36.14,71.959,36.458,72.243,36.679,72.019
						L36.679,72.019z"/>
				</g>
			</g>
			<g>
				<g>
					<path fill="#FFFFFF" d="M50.091,72.562c4.598-0.628,10.033,1.031,14.402-0.722c1.183-0.475,1.033-2.262,2.563-2.9
						c1.293-0.541,2.313-0.506,3.204-1.653c0.101-0.131,0.015-0.364-0.177-0.304c-1.56,0.49-4.857,0.917-5.493,2.806
						c-1.116,3.314-11.469,1.389-14.641,2.266C49.612,72.147,49.765,72.607,50.091,72.562L50.091,72.562z"/>
				</g>
			</g>
			<g>
				<g>
					<path fill="#FFFFFF" d="M71.78,70.467c1.938,0.198,3.479-0.739,4.491-2.359c0.635-1.014,2.127-1.466,2.999-2.312
						c0.663-0.644,1.119-1.499,1.171-2.416c0.011-0.194-0.231-0.213-0.327-0.089c-0.495,0.641-0.862,1.331-1.396,1.952
						c-0.662,0.772-1.599,1.112-2.425,1.647c-0.404,0.263-0.671,0.821-0.913,1.213c-0.762,1.232-2.228,1.79-3.601,1.93
						C71.501,70.062,71.501,70.438,71.78,70.467L71.78,70.467z"/>
				</g>
			</g>
			<g>
				<g>
					<path fill="#FFFFFF" d="M73.726,49.798c-0.909-1.783-1.301-3.817-2.448-5.474c-0.695-1.001-2.072-2.14-3.352-1.646
						c-0.182,0.07-0.173,0.288,0,0.361c1.537,0.647,2.522,1.149,3.36,2.689c0.765,1.407,1.063,3.004,2.014,4.316
						C73.484,50.301,73.871,50.085,73.726,49.798L73.726,49.798z"/>
				</g>
			</g>
			<g>
				<g>
					<path fill="#FFFFFF" d="M72.528,46.649c0.36-0.354,0.772-0.577,1.248-0.741c0.455-0.156,0.949-0.113,1.404-0.257
						c0.162-0.051,0.178-0.25,0.045-0.343c-0.986-0.687-2.436,0.181-3.062,0.976C71.963,46.539,72.284,46.888,72.528,46.649
						L72.528,46.649z"/>
				</g>
			</g>
			<g>
				<g>
					<path fill="#FFFFFF" d="M50.38,29.361c-1.89,2.378-3.719,4.138-6.789,4.821c-1.883,0.419-2.206,1.916-3.122,3.404
						c-0.083,0.135,0.056,0.348,0.218,0.284c0.708-0.277,0.917-0.756,1.233-1.444c0.752-1.633,2.589-1.602,4.045-2.186
						c2.058-0.826,4.002-2.576,4.747-4.687C50.776,29.373,50.504,29.205,50.38,29.361L50.38,29.361z"/>
				</g>
			</g>
			<g>
				<g>
					<path fill="#FFFFFF" d="M40.953,36.775c-0.971,0.66-1.85,1.41-2.748,2.166c-0.76,0.64-1.979,1.336-2.489,2.206
						c-0.113,0.193-0.289,0.695-0.132,0.943c1.21,1.919,1.194,5.385-0.984,6.843c-0.293,0.195-0.101,0.6,0.23,0.546
						c2.03-0.33,2.471-3.562,2.483-5.228c0.006-0.842-1.239-2.438-0.604-3.156c1.322-1.497,3.059-2.622,4.407-4.109
						C41.214,36.877,41.084,36.685,40.953,36.775L40.953,36.775z"/>
				</g>
			</g>
			<g>
				<g>
					<path fill="#FFFFFF" d="M36.102,40.836c-1.634-0.793-3.268-0.545-5.06-0.458c-1.275,0.062-3.994-0.303-5.112,0.442
						c-1.333,0.89-1.761,2.406-3.042,3.437c-0.967,0.779-1.461,1.332-1.15,2.542c0.093,0.361,0.646,0.283,0.645-0.087
						c-0.01-1.942,2.636-2.621,3.289-4.327c0.747-1.953,8.678-1.406,10.276-1.186C36.151,41.228,36.324,40.944,36.102,40.836
						L36.102,40.836z"/>
				</g>
			</g>
			<g>
				<g>
					<path fill="#FFFFFF" d="M21.93,46.837c0.338,0.4,0.666,0.81,1.012,1.203c0.319,0.36,0.94,0.896,0.939,1.412
						c0,0.379,0.543,0.548,0.728,0.197c0.326-0.616-0.201-1.141-0.585-1.584c-0.541-0.625-1.15-1.12-1.881-1.504
						C21.961,46.465,21.803,46.686,21.93,46.837L21.93,46.837z"/>
				</g>
			</g>
			<g>
				<g>
					<path fill="#FFFFFF" d="M22.361,46.785c-3.02-1.65-5.644-0.605-8.547,0.684c-0.131,0.059-0.122,0.272,0,0.334
						c0.825,0.413,1.395,0.104,2.197-0.318c2.042-1.074,4.017-0.797,6.16-0.249C22.438,47.304,22.611,46.922,22.361,46.785
						L22.361,46.785z"/>
				</g>
			</g>
			<g>
				<g>
					<path fill="#FFFFFF" d="M14.569,47.401c-1.051-0.562-1.377-1.782-1.94-2.747c-0.485-0.833-1.499-2.161-2.571-2.084
						c-0.131,0.01-0.271,0.138-0.215,0.282c0.211,0.54,0.659,0.82,1.075,1.208c0.612,0.571,1.053,1.278,1.444,2.01
						c0.467,0.873,1.04,1.851,2.163,1.663C14.683,47.707,14.7,47.472,14.569,47.401L14.569,47.401z"/>
				</g>
			</g>
			<g>
				<g>
					<path fill="#FFFFFF" d="M8.294,47.171c-0.929,1.077-1.836,2.59-2.344,3.921c-0.219,0.575-0.018,1.894,0.876,1.37
						c0.083-0.048,0.111-0.157,0.063-0.24c-0.439-0.749,0.339-1.688,0.692-2.368c0.414-0.794,0.83-1.61,1.065-2.478
						C8.7,47.182,8.437,47.006,8.294,47.171L8.294,47.171z"/>
				</g>
			</g>
			<g>
				<g>
					<path fill="#FFFFFF" d="M4.279,46.976c0.333-0.457,0.773-0.829,1.25-1.13c0.468-0.295,1.031-0.384,1.491-0.697
						c0.094-0.064,0.11-0.213,0-0.273c-1.299-0.707-2.807,0.78-3.211,1.902C3.701,47.072,4.12,47.194,4.279,46.976L4.279,46.976z"/>
				</g>
			</g>
			<g>
				<g>
					<path fill="#FFFFFF" d="M6.128,40.208c1.041-0.872,1.449-2.321,2.388-3.304c1.36-1.424,2.574,1.037,3.747,0.047
						c0.134-0.113,0.045-0.313-0.096-0.362c-1.339-0.467-2.424-1.244-3.82-0.494c-0.574,0.309-0.97,1.013-1.29,1.547
						c-0.452,0.756-1.021,1.537-1.204,2.406C5.818,40.215,6.001,40.314,6.128,40.208L6.128,40.208z"/>
				</g>
			</g>
			<g>
				<g>
					<path fill="#FFFFFF" d="M14.694,40.993c-1.48-0.84-2.405-2.153-2.506-3.879c-0.073-1.259,2.226-1.933,3.111-2.419
						c1.632-0.897,3.1-2.477,4.453-3.726c0.187-0.173-0.018-0.41-0.222-0.382c-1.72,0.234-2.804,2.064-4.135,3.045
						c-1.219,0.899-2.841,0.978-3.765,2.217c-1.557,2.089,1.086,4.924,2.924,5.476C14.753,41.384,14.873,41.094,14.694,40.993
						L14.694,40.993z"/>
				</g>
			</g>
			<g>
				<g>
					<path fill="#FFFFFF" d="M16.988,29.611c1.156,1.051,3.661,2.507,5.281,1.578c1.096-0.628,1.994-1.528,3.079-2.188
						c1.957-1.188,4.218-1.178,6.336-1.824c0.238-0.072,0.187-0.415-0.058-0.426c-1.95-0.091-4.162,0.279-5.92,1.157
						c-0.807,0.403-1.591,0.827-2.286,1.412c-2.023,1.704-4.15,1.135-6.099-0.141C17.06,29.007,16.757,29.401,16.988,29.611
						L16.988,29.611z"/>
				</g>
			</g>
			<g>
				<g>
					<path fill="#FFFFFF" d="M25.729,35.148c-0.52-0.271-1.016-0.548-1.448-0.95c-0.603-0.56-0.53-1.399-0.637-2.145
						c-0.105-0.737-0.575-1.347-1.33-1.156c-0.137,0.035-0.16,0.197-0.078,0.294c0.712,0.838,0.498,1.843,0.9,2.801
						c0.384,0.913,1.354,1.425,2.19,1.844C25.783,36.065,26.186,35.387,25.729,35.148L25.729,35.148z"/>
				</g>
			</g>
			<g>
				<g>
					<path fill="#FFFFFF" d="M28.236,31.547c-0.467,0.938,0.034,1.617,0.74,2.263c1.421,1.301-0.221,3.115,0.811,4.473
						c0.132,0.174,0.382,0.115,0.404-0.109c0.106-1.077,0.268-2.312,0.159-3.389c-0.115-1.15-2.045-1.932-1.621-3.03
						C28.839,31.469,28.371,31.276,28.236,31.547L28.236,31.547z"/>
				</g>
			</g>
			<g>
				<g>
					<path fill="#FFFFFF" d="M30.266,35.535c0.293-0.322,0.642-0.521,1.055-0.653c0.395-0.127,0.84-0.001,1.214-0.157
						c0.136-0.057,0.179-0.196,0.083-0.313c-0.336-0.409-1.025-0.287-1.468-0.149c-0.528,0.165-0.942,0.543-1.234,1.003
						C29.781,35.478,30.095,35.722,30.266,35.535L30.266,35.535z"/>
				</g>
			</g>
			<g>
				<g>
					<path fill="#FFFFFF" d="M37.755,31.925c-1.984-0.66-3.376-2-4.113-3.946c-0.295-0.78-1.05-2.037-2.035-1.509
						c-0.124,0.066-0.148,0.254-0.045,0.35c0.189,0.175,0.266,0.228,0.501,0.353c0.616,0.33,0.796,1.138,1.024,1.726
						c0.241,0.621,0.613,1.155,1.033,1.665c0.904,1.101,2.18,1.685,3.57,1.833C37.974,32.427,37.999,32.006,37.755,31.925
						L37.755,31.925z"/>
				</g>
			</g>
			<g>
				<g>
					<path fill="#FFFFFF" d="M30.605,27.196c2.651-0.248,3.957-2.611,6.928-1.494c2.565,0.964,5.453,1.019,8.056,0.143
						c0.226-0.076,0.186-0.404-0.056-0.415c-1.349-0.057-2.673,0.131-4.021,0.182c-1.99,0.075-3.631-0.791-5.496-1.237
						c-1.638-0.391-3.957,2.02-5.452,2.51C30.402,26.938,30.42,27.214,30.605,27.196L30.605,27.196z"/>
				</g>
			</g>
			<g>
				<g>
					<path fill="#FFFFFF" d="M30.688,21.139c-1.13-0.006-2.131,0.616-2.87,1.431c-0.423,0.467-1.522,2.041-0.805,2.602
						c0.074,0.058,0.142,0.068,0.228,0.03c0.276-0.124,0.342-0.37,0.405-0.651c0.118-0.524,0.394-1.01,0.725-1.428
						c0.609-0.769,1.475-1.175,2.389-1.454C31.05,21.58,30.997,21.141,30.688,21.139L30.688,21.139z"/>
				</g>
			</g>
			<g>
				<g>
					<path fill="#FFFFFF" d="M11.745,28.513c-0.251,0.561-0.224,1.115,0.02,1.673c0.213,0.49,0.801,0.935,1.348,0.796
						c0.158-0.04,0.199-0.24,0.093-0.353c-0.543-0.576-1.247-0.999-1-1.923C12.277,28.439,11.865,28.246,11.745,28.513
						L11.745,28.513z"/>
				</g>
			</g>
			<g>
				<g>
					<path fill="#FFFFFF" d="M49.747,25.186c1.208,0.135,2.312,0.185,3.396,0.798c0.581,0.329,0.996,0.874,1.305,1.45
						c0.244,0.456,0.204,0.958,0.463,1.401c0.09,0.154,0.325,0.158,0.414,0c0.591-1.047-0.471-2.521-1.29-3.151
						c-1.215-0.935-2.853-1.32-4.353-0.981C49.39,24.769,49.49,25.157,49.747,25.186L49.747,25.186z"/>
				</g>
			</g>
			<g>
				<g>
					<path fill="#FFFFFF" d="M80.447,51.291c-0.736,0.435-1.639,1.326-1.393,2.294c0.153,0.605,0.489,0.923,0.864,1.416
						c0.508,0.671,0.112,1.67,0.238,2.431c0.031,0.19,0.285,0.181,0.374,0.049c0.493-0.73,0.492-1.616,0.265-2.448
						c-0.104-0.383-0.406-0.698-0.66-0.99c-0.796-0.915,0.14-1.769,0.6-2.463C80.855,51.398,80.624,51.187,80.447,51.291
						L80.447,51.291z"/>
				</g>
			</g>
		</g>
		<g>
			<g>
				<path fill="#FFFFFF" d="M30.321,66.307c0.069-0.553-0.058-1.027-0.127-1.578c-0.075-0.592,0.176-1.2,0.343-1.758
					c0.2-0.669,0.337-1.386-0.175-1.927c-0.117-0.122-0.385-0.039-0.36,0.149c0.135,1.034-0.184,1.835-0.336,2.839
					c-0.117,0.773,0.205,1.564,0.322,2.319C30.02,66.559,30.3,66.479,30.321,66.307L30.321,66.307z"/>
			</g>
		</g>
		<g>
			<g>
				<path fill="#FFFFFF" d="M41.461,64.677c-0.075-0.923,0.024-1.668,0.537-2.453c0.284-0.437,0.71-0.813,0.555-1.372
					c-0.021-0.076-0.132-0.095-0.171-0.021c-0.351,0.65-1.016,1.049-1.277,1.754c-0.272,0.738-0.316,1.472,0.094,2.164
					C41.267,64.861,41.473,64.821,41.461,64.677L41.461,64.677z"/>
			</g>
		</g>
		<g>
			<g>
				<path fill="#FFFFFF" d="M37.306,55.552c-0.619,0.333-0.884,0.88-0.973,1.558c-0.07,0.537,0.102,1.401,0.734,1.51
					c0.102,0.018,0.21-0.043,0.208-0.158c-0.01-0.425-0.255-0.787-0.267-1.218c-0.014-0.483,0.25-0.982,0.596-1.305
					C37.814,55.742,37.546,55.423,37.306,55.552L37.306,55.552z"/>
			</g>
		</g>
		<g>
			<g>
				<path fill="#FFFFFF" d="M26.592,70.493c0.672,0.219,1.338,0.363,1.981,0.672c0.58,0.277,1.068,0.884,1.702,0.989
					c0.125,0.021,0.244-0.074,0.209-0.209c-0.178-0.678-1.017-1.033-1.598-1.316c-0.681-0.331-1.479-0.578-2.242-0.527
					C26.42,70.116,26.373,70.422,26.592,70.493L26.592,70.493z"/>
			</g>
		</g>
		<g>
			<g>
				<path fill="#FFFFFF" d="M73.938,80.236c0.717-0.331,1.181-0.775,1.63-1.418c0.43-0.614,0.391-1.439,1.312-1.729
					c0.425-0.134,0.793-0.335,1.167-0.575c1.136-0.727,2.232-2.472,1.778-3.834c-0.058-0.171-0.279-0.163-0.34,0
					c-0.277,0.754-0.351,1.492-0.758,2.214c-0.587,1.038-1.521,1.211-2.455,1.763c-0.403,0.238-0.618,0.429-0.773,0.901
					c-0.337,1.024-0.944,1.749-1.768,2.412C73.57,80.1,73.775,80.312,73.938,80.236L73.938,80.236z"/>
			</g>
		</g>
		<g>
			<g>
				<path fill="#FFFFFF" d="M24.882,58.362c-0.645,0.492-1.052,1.146-1.318,1.906c-0.378,1.08,0.497,1.978,0.205,3.052
					c-0.037,0.136,0.129,0.297,0.258,0.198c0.542-0.41,0.622-0.889,0.416-1.527c-0.229-0.71-0.417-1.091-0.179-1.841
					c0.182-0.575,0.585-1.078,0.816-1.636C25.124,58.408,24.973,58.293,24.882,58.362L24.882,58.362z"/>
			</g>
		</g>
		<g>
			<g>
				<path fill="#FFFFFF" d="M82.174,68.247c0.959-1.482,2.702-4.162,1.443-5.925c-0.067-0.093-0.214-0.062-0.219,0.06
					c-0.038,1.039,0.102,1.929-0.211,2.964c-0.289,0.956-0.859,1.843-1.367,2.694C81.684,68.269,82.031,68.468,82.174,68.247
					L82.174,68.247z"/>
			</g>
		</g>
	</g>
	<g>
		<g>
			<path fill="#FFFFFF" d="M31.822,12.312c-1.267-4.22-2.753-8.409-4.974-12.23c-0.098-0.168-0.391-0.056-0.321,0.136
				c1.504,4.113,3.285,8.119,4.786,12.235C31.428,12.768,31.921,12.643,31.822,12.312L31.822,12.312z"/>
		</g>
	</g>
	<g>
		<g>
			<path fill="#FFFFFF" d="M56.97,16.396c1.732-3.587,3.473-7.64,3.719-11.656c0.015-0.242-0.314-0.247-0.392-0.053
				c-1.478,3.743-2.334,7.745-3.766,11.523C56.435,16.465,56.853,16.64,56.97,16.396L56.97,16.396z"/>
		</g>
	</g>
	<g>
		<g>
			<path fill="#FFFFFF" d="M82.553,28.776c3.759-2.635,7.768-5.113,11.208-8.164c0.169-0.149-0.047-0.409-0.234-0.304
				c-3.987,2.233-7.627,5.192-11.329,7.86C81.835,28.431,82.179,29.038,82.553,28.776L82.553,28.776z"/>
		</g>
	</g>
</g>
</svg>
