<?xml version="1.0" encoding="utf-8"?>
<!-- Generator: Adobe Illustrator 16.0.3, SVG Export Plug-In . SVG Version: 6.00 Build 0)  -->
<!DOCTYPE svg PUBLIC "-//W3C//DTD SVG 1.1//EN" "http://www.w3.org/Graphics/SVG/1.1/DTD/svg11.dtd">
<svg version="1.1" id="Layer_1" xmlns="http://www.w3.org/2000/svg" xmlns:xlink="http://www.w3.org/1999/xlink" x="0px" y="0px"
	 width="57.863px" height="87.62px" viewBox="0 0 57.863 87.62" enable-background="new 0 0 57.863 87.62" xml:space="preserve">
<g>
	<g>
		<g>
			<path fill="#FFFFFF" d="M23.547,61.629c0.452-5.039-3.355-8.061-7.568-10.002c-4.021-1.852-7.895-2.905-10.669-6.64
				c-2.168-2.918-2.704-7.042-3.266-10.534c-1.421-8.836-1.573-17.487,5.472-24.015c5.972-5.534,15.552-8.299,23.465-9.186
				c18.242-2.043,26.389,17.345,25.444,32.803c-0.256,4.188-1.887,8.064-4.798,11.077c-2.647,2.74-6.768,3.923-9.885,6.032
				c-3.303,2.234-4.883,6.281-3.301,9.932c0.275,0.634,1.369,0.173,1.118-0.472c-2.525-6.492,4.889-9.574,9.383-11.96
				c2.567-1.363,4.525-3.291,6.13-5.686c3.307-4.936,3.082-11.684,2.302-17.282c-0.965-6.928-3.65-14.016-8.162-19.392
				c-4.864-5.796-12.686-6.878-19.764-6.066C16.333,1.744,1.501,8.957,0.148,23.375c-0.62,6.604,0.728,14.975,3.565,20.954
				c3.976,8.378,19.519,6.68,19.462,17.3C23.174,61.873,23.526,61.864,23.547,61.629L23.547,61.629z"/>
		</g>
	</g>
	<g>
		<g>
			<path fill="#FFFFFF" d="M30.552,59.131c0.233-4.354,0.342-8.702,0.427-13.062c0.06-3.064,0.98-7.548-0.376-10.46
				c-1.3-2.789-7.969-7.58-11.045-4.503c-5.318,5.318,16.989,8.9,11.845-1.087c-0.183-0.356-0.65-0.211-0.771,0.101
				c-0.733,1.889,0.422,6.238,3.4,5.217c2.711-0.929,3.509-3.744,1.752-5.986c-0.254-0.324-0.675-0.014-0.712,0.295
				c-0.858,7.21,8.02,9.264,10.751,2.736c0.177-0.423-0.563-0.734-0.742-0.312c-1.668,4.016-4.554,4.433-8.658,1.249
				c0.907,1.213-10.318,2.24-12.615,2.064c-2.841-3.714-2.478-4.872,1.088-3.473c3.977,0.829,5.438,4.766,5.464,8.564
				c0.041,6.223-0.151,12.435,0.005,18.658C30.369,59.251,30.545,59.25,30.552,59.131L30.552,59.131z"/>
		</g>
	</g>
	<g>
		<g>
			<path fill="#FFFFFF" d="M21.779,58.656c-3.141,1.042-6.763,3.281-4.443,6.912c0.629,0.985,2.416,0.972,3.402,1.036
				c4.351,0.283,8.768,0.207,13.114-0.076c3.964-0.259,11.411-0.36,12.915-4.884c1.131-3.399-4.674-3.474-6.358-3.028
				c-0.263,0.069-0.207,0.471,0.063,0.47c0.415-0.001,0.83-0.002,1.245-0.003c2.589,3.507,2.382,5.362-0.621,5.566
				c-2.953,0.835-6.062,1.097-9.108,1.296c-1.87,0.121-3.752,0.099-5.625,0.093c-1.251-0.015-2.503-0.042-3.754-0.08
				c-3.681,0.504-3.927-1.818-0.738-6.969C22.072,58.907,21.996,58.584,21.779,58.656L21.779,58.656z"/>
		</g>
	</g>
	<g>
		<g>
			<path fill="#FFFFFF" d="M19.678,61.674c-3.086,0.048-5.968,3.169-4.784,6.426c2.028,5.58,7.363,6.589,12.754,6.724
				c3.817,0.095,7.683-0.679,11.396-1.463c2.079-0.439,5.302-0.92,6.908-2.546c2.033-2.058,2.921-5.954-0.512-7.019
				c-0.265-0.082-0.5,0.291-0.278,0.478c5.692,4.814-2.523,7.181-4.528,7.711c-3.02,0.798-6.108,1.331-9.205,1.711
				c-2.811,0.345-5.671,0.276-8.47-0.123C17.708,72.821,11.186,64.039,19.722,62C19.906,61.956,19.865,61.671,19.678,61.674
				L19.678,61.674z"/>
		</g>
	</g>
	<g>
		<g>
			<path fill="#FFFFFF" d="M19.512,73.649c-1.915,0.317-2.957,2.046-2.42,3.997c0.897,3.261,5.302,3.524,7.997,3.856
				c4.07,0.501,24.381,0.675,19.63-8.462c-0.125-0.239-0.57-0.143-0.533,0.145c0.854,6.579-6.998,7.038-11.451,7.453
				c-1.906,0.177-3.83,0.1-5.737,0.03c-0.636-0.05-1.272-0.099-1.909-0.147c-3.864,0.426-5.676-1.693-5.435-6.358
				C19.982,74.05,19.847,73.594,19.512,73.649L19.512,73.649z"/>
		</g>
	</g>
	<g>
		<g>
			<path fill="#FFFFFF" d="M22.905,81.443c-3.878,5.728,10.783,6.197,13.338,6.176c4.133-0.034,11.648-5.002,6.752-9.323
				c-0.214-0.189-0.508,0.045-0.387,0.298c2.706,5.631-2.937,8.048-7.541,8.091c-1.423,0.013-13.921-0.471-11.714-4.979
				C23.5,81.404,23.093,81.166,22.905,81.443L22.905,81.443z"/>
		</g>
	</g>
</g>
</svg>
