<?xml version="1.0" encoding="utf-8"?>
<!-- Generator: Adobe Illustrator 16.0.3, SVG Export Plug-In . SVG Version: 6.00 Build 0)  -->
<!DOCTYPE svg PUBLIC "-//W3C//DTD SVG 1.1//EN" "http://www.w3.org/Graphics/SVG/1.1/DTD/svg11.dtd">
<svg version="1.1" id="Layer_1" xmlns="http://www.w3.org/2000/svg" xmlns:xlink="http://www.w3.org/1999/xlink" x="0px" y="0px"
	 width="63.778px" height="122.014px" viewBox="0 0 63.778 122.014" enable-background="new 0 0 63.778 122.014"
	 xml:space="preserve">
<g>
	<path fill="#FFFFFF" d="M58.168,98.729c-5.352-10.333-10.066-20.88-14.727-31.54c-2.589-5.921-0.459-12.835,0.129-19.034
		c0.673-7.09-0.076-15.545,2.423-22.25c0.093-0.252-0.121-0.491-0.362-0.512c-2.54-0.222-5.092-0.319-7.642-0.37
		c-2.538-0.302-5.084-0.56-7.634-0.691c-0.255-0.013-0.452,0.237-0.398,0.481c1.498,6.762-0.326,14.65-0.642,21.517
		c-0.322,7.013,0.78,14.422-3.102,20.567c-6.045,9.57-11.883,19.149-18.431,28.395c-3.399,4.802-10.83,14.409-6.426,20.763
		c2.258,3.258,8.753,2.679,12.183,2.902c5.967,0.387,11.952,0.409,17.922,0.752c6.175,0.502,12.319,1.353,18.5,1.778
		c3.393,0.234,9.234,1.62,11.828-1.349C66.867,114.328,60.944,104.09,58.168,98.729z M56.312,120.831
		c-3.032,0.39-6.63-0.261-9.647-0.544c-4.731-0.446-9.442-1.054-14.175-1.465c-0.052-0.022-0.106-0.041-0.17-0.046
		c-0.287-0.019-0.573-0.027-0.859-0.043c-0.306-0.024-0.609-0.057-0.915-0.079c-0.069-0.006-0.126,0.005-0.18,0.023
		c-5.168-0.267-10.341-0.296-15.509-0.571c-2.77-0.149-5.541-0.361-8.291-0.73c-6.361-0.854-5.814-6.341-4.351-10.926
		c1.383-4.333,4.469-8.065,7.079-11.723c3.385-4.746,6.707-9.488,9.746-14.468c1.729-2.833,3.402-5.701,5.132-8.533
		c1.538-2.52,3.562-5.07,4.694-7.815c1.869-4.531,0.956-10.308,1.147-15.088c0.282-7.068,0.513-14.422,1.208-21.439
		c0.098-0.988-0.696-1.481,0.483-2.209c0.289-0.179,1.991,0.119,2.431,0.153c1.284,0.099,2.544,0.19,3.82,0.21
		c1.276,0.16,2.543,0.245,3.841,0.322c3.168,0.188,2.836,0.89,2.33,3.7c-1.085,6.021-0.796,12.372-1.356,18.464
		c-0.498,5.426-2.544,11.937-0.981,17.281c1.558,5.328,4.566,10.594,6.76,15.7c2.346,5.456,4.938,10.75,7.698,16.005
		c2.521,4.802,5.552,9.664,6.136,15.149c0.131,1.229,0.268,2.5,0.111,3.731C62.106,118.959,59.044,120.479,56.312,120.831z"/>
	<path fill="#FFFFFF" d="M53.956,99.594c-1.32-2.56-2.524-5.884-4.22-8.153c-1.509-2.02-2.558-1.296-4.834-1.612
		c-4.946-0.685,0.631-4.676,0.472-7.462c-0.093-1.626-1.05-2.322-2.595-2.643c-1.628-0.337-3.344-0.209-4.489,1.059
		c-2.236,2.478,0.722,7.56-1.534,9.165c-3.208,2.285-5.648-6.136-9.332-3.207c-0.752,0.597-1.697,3.276-2.892,3.05
		c-2.169-0.412-0.312-4.558-0.364-5.75c-0.055-1.25-0.285-2.372-1.768-2.568c-1.327-0.176-2.537,1.143-3.16,2.111
		c-1.008,1.566-1.406,3.622-2.208,5.295c-1.081,2.255-2.523,4.211-4.189,6.068c-4.143,4.616-11.37,10.534-9.545,17.657
		c0.049,0.19,0.149,0.31,0.271,0.376c0.059,0.075,0.14,0.137,0.266,0.159c9.183,1.619,18.427,2.877,27.723,3.622
		c4.674,0.374,9.359,0.617,14.047,0.694c2.16,0.037,4.321,0.039,6.481-0.003c1.448-0.029,3.901,0.305,5.172-0.741
		c1.354-1.117,0.996-3.409,0.83-4.93C57.618,107.49,55.917,103.397,53.956,99.594z M52.887,116.463
		c-1.128,0.159-2.44,0.045-3.566,0.047c-1.938,0.005-3.876-0.023-5.814-0.077c-4.206-0.118-8.408-0.367-12.601-0.716
		c-8.875-0.739-17.702-1.94-26.469-3.485c-0.027-0.06-0.061-0.121-0.109-0.183c-4.382-5.505,7.98-15.183,10.681-18.592
		c1.702-2.15,2.778-4.476,3.802-7.007c0.321-0.796,0.579-1.823,1.092-2.536c2.285-3.17,3.392,0.532,2.965,2.857
		c-0.336,1.839-0.585,4.215,1.986,3.811c1.309-0.206,1.314-0.897,2.167-1.71c3.315-3.162,4.18,0.014,6.667,1.509
		c1.721,1.034,3.994,0.953,4.667-1.06c0.932-2.791-2.162-9.413,3.203-8.955c7.16,0.611-0.043,6.02,0,8.026
		c0.018,0.848,0.431,1.213,1.146,1.682c0.349,0.229,0.77,0.426,1.171,0.536c2.51,0.684,4.446-0.014,5.742,2.83
		c1.202,2.639,2.803,5.088,4.069,7.703c1.608,3.32,4.01,8.242,3.496,12.002c0.021,0.412,0.039,0.824,0.059,1.236
		C56,115.842,54.55,116.535,52.887,116.463z"/>
	<path fill="#FFFFFF" d="M25.826,79.385c0.741,0.596,1.846,0.409,2.353-0.394c0.422-0.667,0.243-1.648-0.443-2.069
		c-0.641-0.393-1.514-0.073-1.794,0.607c-0.034-0.017-0.071-0.025-0.116-0.007C24.99,77.867,25.249,78.92,25.826,79.385z
		 M25.968,77.8c0.098,0.093,0.276,0.104,0.354-0.059c0.195-0.404,0.764-0.537,1.125-0.267c0.356,0.265,0.399,0.826,0.153,1.174
		C26.981,79.53,25.468,78.739,25.968,77.8z"/>
	<path fill="#FFFFFF" d="M32.378,69.13c-0.043,0.015-0.086,0.019-0.13,0.046c-1.914,1.151-2.561,3.848-1.193,5.694
		c1.536,2.074,4.515,1.383,6.371,0.16c1.939-1.278,1.952-3.834,0.431-5.468C36.371,67.965,34.051,67.919,32.378,69.13z
		 M36.469,74.199c-1.106,0.642-2.824,1.239-3.997,0.407c-1.322-0.937-1.158-2.959-0.101-4.007c0.101-0.019,0.202-0.059,0.295-0.15
		C35.549,67.627,39.95,72.179,36.469,74.199z"/>
	<path fill="#FFFFFF" d="M32.894,60.797c0.31-0.416,0.262-1.014-0.232-1.258c-0.408-0.201-0.965-0.095-1.163,0.34
		c-0.042,0.091,0.087,0.178,0.137,0.084c0.408-0.757,1.689,0.053,0.902,0.72c-0.721,0.611-1.28-0.421-1.114-1.061
		c0.017-0.069-0.078-0.135-0.127-0.074C30.45,60.579,32.064,61.914,32.894,60.797z"/>
	<path fill="#FFFFFF" d="M35.221,51.052c0.603-0.742,1.76-0.956,2.49-0.253c0.624,0.602,0.725,1.54,0.025,2.133
		c-0.596,0.506-1.523,0.748-2.223,0.307c-0.829-0.521-0.675-1.5,0.072-1.976c0.067-0.043,0.051-0.164-0.04-0.161
		c-1.003,0.038-1.347,1.322-0.863,2.07c0.726,1.123,2.249,0.973,3.198,0.258c0.993-0.745,1.043-2.078,0.099-2.915
		c-0.93-0.824-2.251-0.552-2.949,0.412C34.942,51.049,35.131,51.163,35.221,51.052z"/>
	<path fill="#FFFFFF" d="M33.007,40.213c0.059,0.511,0.617,0.734,1.038,0.469c0.414-0.261,0.545-0.862,0.134-1.188
		c-0.36-0.284-0.922-0.176-1.124,0.237c-0.018,0.038-0.011,0.077,0.005,0.112C33.014,39.96,32.993,40.089,33.007,40.213z
		 M33.816,40.306c-0.206,0.118-0.367-0.046-0.354-0.253c0.006-0.114,0.065-0.22,0.14-0.312c0.052-0.001,0.102-0.014,0.156,0.001
		C34.04,39.825,34.085,40.152,33.816,40.306z"/>
	<path fill="#FFFFFF" d="M39.353,36.909c0.772-0.313,1.079-1.416,0.557-2.072c-0.534-0.669-1.546-0.589-2.031,0.068
		c-0.002,0.003,0.003,0.005,0.003,0.005c-0.222,0.248-0.365,0.557-0.354,0.858C37.557,36.617,38.586,37.218,39.353,36.909z
		 M39.281,36.505c-0.527,0.268-1.21-0.119-1.333-0.678c-0.158-0.719,0.498-1.107,1.107-1.139c0.225,0.054,0.43,0.169,0.564,0.355
		C39.952,35.5,39.788,36.249,39.281,36.505z"/>
	<path fill="#FFFFFF" d="M37.447,42.081c0.756-0.53-0.075-1.585-0.781-1.036c-0.031,0.024-0.044,0.056-0.046,0.088
		C36.093,41.491,36.738,42.577,37.447,42.081z M37.192,41.227c0.319,0.127,0.241,0.561-0.101,0.557
		c-0.307-0.004-0.31-0.276-0.263-0.516C36.941,41.198,37.066,41.177,37.192,41.227z"/>
	<path fill="#FFFFFF" d="M32.087,48.007c0.032,0.77,0.717,1.259,1.456,1.214c0.745-0.046,1.377-0.625,1.314-1.404
		c-0.059-0.738-0.745-1.352-1.484-1.257c-0.029,0.004-0.046,0.017-0.058,0.034c-0.021-0.028-0.052-0.05-0.101-0.041
		C32.524,46.676,32.058,47.315,32.087,48.007z M33.256,46.778c0.042-0.011,0.064-0.04,0.076-0.073
		c0.014,0.017,0.034,0.03,0.057,0.034c1.138,0.177,1.358,1.931,0.062,2.01C32.223,48.824,32.199,47.063,33.256,46.778z"/>
	<path fill="#FFFFFF" d="M36.026,57.427c-0.778-0.054-0.535,1.233,0.233,1.132c0.376-0.049,0.688-0.398,0.725-0.77
		c0.049-0.489-0.323-0.881-0.719-1.1c-0.083-0.046-0.177,0.072-0.102,0.137c0.302,0.258,0.661,0.756,0.337,1.14
		c-0.151,0.179-0.446,0.254-0.52-0.022c-0.035-0.134-0.02-0.304,0.084-0.399C36.104,57.51,36.078,57.431,36.026,57.427z"/>
	<path fill="#FFFFFF" d="M35.557,65.342c0.557,0.404,1.278,0.156,1.619-0.402c0.332-0.545,0.23-1.256-0.338-1.595
		c-0.533-0.319-1.271-0.249-1.559,0.347c-0.01,0.021-0.01,0.04-0.004,0.058c-0.015,0.003-0.029,0.01-0.041,0.027
		C34.875,64.3,35.052,64.976,35.557,65.342z M36.874,64.663c-0.186,0.383-0.634,0.624-1.04,0.42
		c-0.422-0.211-0.626-0.789-0.474-1.225c0.005-0.016,0.002-0.032-0.001-0.047c0.016,0,0.032-0.002,0.046-0.013
		C36.055,63.331,37.344,63.693,36.874,64.663z"/>
	<path fill="#FFFFFF" d="M41.292,76.926c0.619-0.415,1.007-1.548,0.647-2.229c-0.28-0.529-1.063-0.719-1.456-0.219
		c-0.075,0.096,0.073,0.24,0.159,0.148c0.515-0.543,1.103,0.172,1.053,0.703c-0.035,0.367-0.251,0.958-0.581,1.147
		c-0.543,0.312-0.981-0.482-1.115-0.911c-0.152-0.485,0.038-0.935,0.487-1.172c0.086-0.045,0.053-0.19-0.046-0.187
		C38.583,74.259,39.844,77.898,41.292,76.926z"/>
	<path fill="#FFFFFF" d="M35.4,30.632c0.984-0.395,1.569-1.643,1.134-2.639c-0.423-0.971-1.596-1.362-2.521-0.884
		c-0.003,0.001-0.002,0.004-0.002,0.004c-1.004,0.358-1.878,1.305-1.372,2.414C33.097,30.527,34.376,31.042,35.4,30.632z
		 M34.237,27.235c0.755-0.193,1.65,0.168,1.948,0.92c0.321,0.812-0.219,1.833-1.042,2.067c-0.769,0.218-1.696-0.17-2.036-0.914
		C32.679,28.369,33.656,27.787,34.237,27.235z"/>
	<path fill="#FFFFFF" d="M43.389,13.455c-1.886,0.126-4.494,1.511-4.101,3.745c0.009,0.049,0.081,0.034,0.075-0.015
		c-0.212-1.945,2.034-3.139,3.622-3.329c2.198-0.263,3.932,0.915,4.084,3.213c0.333,5.018-7.455,5.386-7.912,0.5
		c-0.016-0.169-0.249-0.179-0.267-0.006c-0.569,5.27,8.517,5.383,8.713,0.232C47.708,15.084,46.176,13.269,43.389,13.455z"/>
	<path fill="#FFFFFF" d="M43.479,14.589c0.028-0.04-0.022-0.088-0.061-0.059c-0.38,0.292-0.515,0.608-0.393,1.079
		c0.024,0.092,0.154,0.138,0.235,0.103c0.459-0.202,0.97,0.033,1.124,0.508c0.061,0.189,0.366,0.141,0.381-0.052
		c0.039-0.522,0.062-1.105-0.269-1.549c-0.237-0.319-0.643-0.572-1.023-0.355c-0.045,0.026-0.066,0.114,0,0.132
		c0.661,0.173,0.858,0.604,0.897,1.145c-0.287-0.23-0.671-0.327-1.04-0.234C43.301,15.059,43.341,14.786,43.479,14.589z"/>
	<path fill="#FFFFFF" d="M35.453,15.667c0.866-0.164,1.461-1.102,1.302-1.958c-0.157-0.847-0.944-1.38-1.767-1.398
		c-0.019-0.018-0.044-0.029-0.074-0.019c-0.013,0.004-0.024,0.012-0.038,0.017c-0.021,0-0.041-0.003-0.062-0.001
		c-0.052,0.003-0.078,0.033-0.093,0.069c-0.78,0.362-1.376,1.205-1.186,2.091C33.716,15.306,34.637,15.822,35.453,15.667z
		 M34.83,12.552c0,0,0.005,0.002,0.008,0.002c0.762-0.006,1.501,0.529,1.534,1.329c0.028,0.715-0.529,1.431-1.288,1.376
		c-0.651-0.048-1.188-0.597-1.138-1.264C33.992,13.415,34.396,12.924,34.83,12.552z"/>
	<path fill="#FFFFFF" d="M35.801,13.711c0.099,0.007,0.189-0.065,0.2-0.165c0.04-0.381-0.153-0.648-0.506-0.776
		c-0.082-0.03-0.133,0.045-0.12,0.11c-0.187,0.04-0.301,0.188-0.354,0.387c-0.018,0.067-0.008,0.149,0.057,0.191
		C35.307,13.607,35.526,13.689,35.801,13.711z M35.661,13.342c-0.098-0.005-0.191-0.025-0.211-0.118
		c-0.024-0.104,0.015-0.113,0.078-0.205C35.617,13.102,35.664,13.217,35.661,13.342z"/>
	<path fill="#FFFFFF" d="M38.514,8.031c2.304,0.782,5.353-0.375,6.355-2.614c0.904-2.022-0.059-4.581-2.252-5.245
		c-1.812-0.548-4.427,0.239-5.303,1.974c-0.008,0.007-0.018,0.008-0.025,0.018C35.956,4.12,35.869,7.134,38.514,8.031z
		 M37.067,3.422c0.061,0.027,0.149,0.001,0.153-0.087c0.151-2.971,5.061-3.678,6.69-1.822c1.23,1.4,1.015,3.491-0.229,4.79
		c-1.198,1.251-3.119,1.655-4.758,1.236C36.814,6.998,36.615,5.139,37.067,3.422z"/>
	<path fill="#FFFFFF" d="M42.775,3.292c0.018,0.106,0.15,0.158,0.24,0.109c0.558-0.302,0.989-1.021,0.473-1.578
		c-0.312-0.335-1.162-0.243-1.102,0.277c-0.055-0.042-0.102-0.087-0.162-0.125c-0.063-0.04-0.136,0.051-0.083,0.104
		C42.483,2.408,42.694,2.826,42.775,3.292z M42.885,1.938c0.245-0.048,0.403,0.155,0.449,0.359c0.063,0.278-0.103,0.517-0.308,0.688
		c-0.103-0.299-0.259-0.556-0.486-0.767C42.626,2.108,42.747,1.966,42.885,1.938z"/>
</g>
</svg>
